<svg id="Hit" xmlns="http://www.w3.org/2000/svg" viewBox="0 0 475 475"><defs><style>.cls-1{fill:#231f20;}</style></defs><title>side-hit</title><path class="cls-1" d="M256,31h3c1.78,13.12,16.1,24.83,23,34a84,84,0,0,0,33,26c3.33,1.5,6.08,0,8,1v2l3-1c2.68,1.5,6.38,5.29,12,4,46.36-10.61,85.6-42.57,124-64,10.31-5.76,19.9-14,33-17v2c-2.89,3.33-3,7.54-5,12-4.47,10.15-12,23.1-18,33-14.75,24.15-28.51,48-42,74-10.31,19.87-19.14,38.58-9,62,6.41,14.81,20.42,29.15,33,38,6.31,4.44,22.54,10.91,26,17-11.54,3.53-22,14.29-31,21-16.21,12.1-25.44,25.95-31,46-.68,2.44-4,5.09-3,10,4.83,24,17.89,47.22,30,67,18.14,29.63,36,59,50,92h-4c-9-8.1-23.53-11.65-34-18-26.37-16-51.55-32.49-80-47-10-5.12-34.34-17.54-45-15-33.24,7.92-58.27,34-74,65h-2c-3.56-13.82-17.24-24.71-25-35-4.2-5.56-26.89-27.23-34-24-4.82-2.9-12.66-7.89-20-6-27,6.95-59.54,23.87-84,39-10.77,6.66-21.84,13.12-33,20-2.89,1.78-7.74,6.83-10,6-8.63,5.3-19.15,13.74-30,16,1.67-15.49,13.07-28.74,20-40,14.56-23.67,25.47-48.1,40-72,7.76-12.76,22.88-41.33,19-56-6.31-23.87-22.78-42.85-41-55-7-4.7-20.24-8.35-24-16l1-1c8.94,0,23.33-14.27,31-20,14.7-11,27.69-26.95,33-47,3.41-12.87-6.09-29.05-10-38-10.72-24.55-23.74-45.41-37-67-5.1-8.3-7.91-16.67-13-25C32.26,43,22.25,30.88,20,16h2c2.29,2.12,10.2,4.13,15,7,10,6,20.73,11.62,31,18,34.83,21.63,70,46.09,109,56,6.89,1.75,14.68-4.07,19-6,4.77.69,14.4-6.86,19-10C226.05,73.45,253.7,45.16,256,31Z" transform="translate(-20 -16)"/></svg>