<svg id="Critical_Hit" data-name="Critical Hit" xmlns="http://www.w3.org/2000/svg" viewBox="0 0 490.83 491.15"><defs><style>.cls-1{fill:#231f20;stroke:#fff;stroke-miterlimit:10;}</style></defs><title>side-crit</title><path class="cls-1" d="M451,291a126.59,126.59,0,0,1,29-28c6.64-4.44,16-5.65,20-10-40.06-17.42-86-64.42-65-127,6.49-19.32,14.77-38.44,23-57,5-11.24,14.94-23.89,17-37-7.84,1-10.44,4.53-16,7-16.75,7.45-36,15.32-48,21s-28.94,7.87-35,11c-9.63,5-32.91,10.65-45,6a145.65,145.65,0,0,1-49-32c-9.26-9.24-23-21.25-25-37h-3c-2.28,16-15.13,28-25,37-13.75,12.48-29.88,25.08-49,32-13.64,4.94-33.65-2.65-45-6-12.79-3.77-37.93-12.28-54-19C65.53,45.53,51.33,34.22,36,32c2.17,12.72,11.24,24.16,16,35,8.72,19.88,15.77,38.44,23,60,4,11.81,11,32.4,6,49-4.87,16.15-15.67,32.42-25,45-5.77,7.78-19.6,19.84-28,25-5,3.09-11.4,3.53-16,7l-1,1c13.71,3.36,26,13,36,23,13.92,13.92,27,32.58,34,53,5.15,14.94-1.54,35.35-5,46-6.93,21.32-13.38,39.52-22,59-5.29,12-15.8,25.16-18,39,14-1.69,25.06-10.17,37-16,13.29-6.49,22.88-8.35,34-13,9.53-4,28.66-12,31-11,12.44-2.75,30.58-10,46-3,12.86,5.8,28.34,15.78,41,27,11,9.77,26.66,22.25,29,40,6.46-2,9.34-15.8,13-21,9.15-13,23.44-25.45,37-34,9.81-6.18,21.78-12.07,34-15,11.28-2.7,23.59,3,30,5,2.06-1.79,7.94,1.73,11,3a132.45,132.45,0,0,1,15,4,325.24,325.24,0,0,1,38,17c11.71,6,32.26,9.94,39,17h4c-3.65-13.9-12.49-26.48-18-39-8-18.18-13.67-35.69-21-55-3.31-8.71-10.91-31.95-7-46C433.35,318.39,442.32,303.07,451,291Zm-73-24c-6.1,9.83-21.82,47.6-19,55-1.2,5.74-5.37,25.39-1,32v2c-35.66-.23-57.21,5.28-78,16-7.79,4-19.81,7.69-23,16-6.24-2.25-10.61-8.65-16-12-9.34-5.81-21.9-9.15-29-14-4.79-3.28-23.94-1.8-31-6H153c7.57-39.7-13-82-31-102,0,0,10.58-15.71,13-20,9.49-16.81,16.18-34.25,18-54,.55-5.93,3.58-22.51,0-28v-2c10.77.06,27.59,1.61,35,0,21.88-4.75,56.18-16,67-32l13,11c10,6.35,23.93,11.68,31,15l28,6h31c-5.81,30.2,4.56,53.15,13,73,4.7,11.05,8.68,22.7,18,29C386.89,258,381.13,262,378,267Z" transform="translate(-10.02 -7.5)"/></svg>