<svg id="Layer_1" data-name="Layer 1" xmlns="http://www.w3.org/2000/svg" viewBox="0 0 470.04 483.25"><defs><style>.cls-1{fill:#231f20;}</style></defs><title>side-block</title><path class="cls-1" d="M493,35c-1.61,15.39-9,31.63-14,45-11.18,30.07-20.07,59.86-32,88-29.08,68.58-55.49,134.49-93,194-21.07,33.43-44.81,65.41-68,97-8.39,11.43-20.05,21.16-28,33l-1-1c-21.94-21.36-39.16-48.61-57-74-23.86-34-45.84-69.65-68-106-5.45-8.94-8.16-18.69-13-28-20.79-40-36.55-82.39-55-126C51.91,128.43,41.89,96.92,31,67c-1.66-4.58-8.62-30-8-31,7.51-6.15,24.94-4.21,35-7,18-5,35.85-4.92,56-10l26-2c10-2.35,25.18-2.32,39-4,36.56-4.43,121.83-6.79,158,0,13.16,2.47,28.39,1.55,38,4l19,1c22.18,5.22,42.44,5.06,60,10C466.73,31.58,482.58,33.6,493,35Z" transform="translate(-22.96 -8.75)"/></svg>