<svg id="Layer_1" data-name="Layer 1" xmlns="http://www.w3.org/2000/svg" viewBox="0 0 455 494"><defs><style>.cls-1{fill:#231f20;}</style></defs><title>side-surge</title><path class="cls-1" d="M255,7c1.94,1.67,1.67,1.44,2,5,3.75,5.65,2.86,13.74,5,21,4.16,14.09,6.52,29.57,11,45,7.7,26.54,14,62.84,22,89,3.74,12.25,9,27.11,10,41,15.84,9.85,28.42,25.3,45,34-4.82,6.56-24.58,19.9-32,25-5.22,3.59-12.07,5.05-13,13-5.86,9.29-5.6,30.2-9,42-9.38,32.51-16.43,81.24-27,119-4.27,15.25-5.77,33.78-10,45-2,5.33.37,12.19-4,15v-2c-4.07-6.57-2-11.83-4-19-5.8-20.35-7.87-43.47-14-65-5.71-20.06-8.83-48.25-16-74-5.1-18.32-12.19-41.49-14-64-10.94-6.27-20-15.78-30-23-4.89-3.53-12.36-6.39-15-12l45-34c2.72-4.59,1.44-10.45,3-16,3-10.6,11.46-29.62,9-40,6.09-13.89,7.37-31.11,12-47C238.57,79,248.52,36.61,255,7Z" transform="translate(-28 -7)"/><path class="cls-1" d="M190,92c-.66,4.13-2.88,7.54-4,11-5.63,17.45-8.71,34.52-14,51-3.83,11.94-4.07,30-10,40-2.13,3.58-14.09,10.11-18,13-14.52,10.74-27.58,26.66-44,35l1,1c6.11,7.77,16.89,13.17,25,19,12,8.65,22.56,21,36,28,1.66,16.69,9.07,34.78,14,50,6.44,19.87,8.24,39.06,15,59,6.69,19.75,14.63,47.3,20,71h-2c-2.81-8.5-12-15.13-17-22-11.9-16.46-23.78-33.21-35-50-27.62-41.32-54.26-86.95-75-134-8.85-20.08-15.31-39.46-24-60-7.78-18.37-13.58-37.95-21-58-3.54-9.57-8.55-19.73-9-32,14.44-.15,36-5.85,51-10,1.07-.29,1.79,1.58,4,1,6.56-1.72,14.85-3.39,22-5l4,1C129.83,97.05,161.08,91.65,190,92Z" transform="translate(-28 -7)"/><path class="cls-1" d="M483,114c.11,13-6.2,24.93-10,35-8.48,22.5-15.12,44.24-24,65-25.4,59.38-50.41,114.33-83,166-13,20.68-27.84,40.9-42,61-6.54,9.29-15.64,17.61-21,28h-2v-3c6.59-9.16,8.05-31.05,12-43,9.51-28.76,16.63-60.32,26-89,4.49-13.74,4.83-30.63,11-43,2.69-5.39,12.13-9.47,17-13,9-6.51,17.08-15.45,26-22,6-4.43,13.79-7.84,18-14-16.79-8.79-30.05-24.95-45-36-4.42-3.27-13.48-7.19-16-12-4.16-7.95-4.26-19.89-7-29-7.1-23.57-15.35-48.57-21-73h5c1.07-.52,4.9.52,7,1,9.8,2.22,21.6.18,29,1,3.82.42,13.2,3.9,17,4a198.48,198.48,0,0,1,48,7c10.55,3,19.52,1.32,30,4C467,111.31,474.17,113.62,483,114Z" transform="translate(-28 -7)"/></svg>