<svg id="Surge" xmlns="http://www.w3.org/2000/svg" viewBox="0 0 485 487"><defs><style>.cls-1{fill:#231f20;fill-rule:evenodd;}</style></defs><title>side-surge</title><path class="cls-1" d="M345,342c-25.06-.6-50.86-7.72-74-12-3.74,5-9.56,6.57-15,10-4.81,3-9.31,8-14,11-8.39,5.35-16.87,8.59-25,14-44.18,29.4-88.07,60.91-135,87-9.28,5.16-18,13.3-27,19-3,1.9-8.36,3-11,5-7.29,5.64-19.72,17.22-30,19v-4c7.36-5.42,9.83-16.3,15-24,11.57-17.24,22.92-34.49,34-53l5-4c2.46-3.59,2.54-7.29,5-11h2v-3c.7-1.19,3.19-2,4-3v-3l3-1a29.63,29.63,0,0,0,0-4c5.9-5,8-12.05,12-19l7-7c2.87-4.2,3.31-8.49,6-13,5.66-9.5,14.36-18.42,20-28,1.49-2.53,1.15-5.77,3-8s4.94-3.4,7-7c9.66-16.91,21.95-34.44,31-48,3.92-5.88,5.17-12.23,10-17-4.42-23.91-9.61-49.29-10-75,26.89.06,49.41,10.51,76,11,5.9-7.94,16.88-10.14,25-16a482.71,482.71,0,0,1,46-30l7-7c7.17-4.91,14.85-7.24,22-12,6.51-4.33,13.16-11.08,20-15l5-1c2.36-1.67,4.35-5.39,7-7,26.19-15.93,51.53-31.06,77-48,10.43-6.94,21.09-13.81,32-21,4.49-3,8.18-7.29,14-9v4c-6,4.43-7.86,12.66-12,19-8.42,12.89-18.73,26-27,39-2.93,4.6-4.05,9.48-7,14-29.37,45-58.18,88.1-86,135l-5,4c-8.09,11.82-13.23,24.05-21,36-1.66,2.55-4.95,4.59-6,8Z" transform="translate(-14 -8)"/><path class="cls-1" d="M54,49c30.88.21,61.63,15,94,6,12.91-3.59,25.13-11.56,37-16,17.42-6.51,38.79-10,61-10,28.18,0,51.59,2.46,72,9,7.72,2.47,20.71,2.44,23,10-8.17,2.66-14,10.1-21,14-16.59,9.29-30.59,20.3-46,30-4.17,2.62-8.94,3.33-13,6-11.29,7.44-19.87,19.85-38,20-8.44-5.35-23.33-2.27-34-5-29-7.42-56.12-8.36-85-14v5c3.79,6,1,15.19,3,23,1.89,7.32,4,19,6,26,.53,1.88-1.11,5.81-1,6,6.56,11.57,5.35,36.76,10,53l1,16c-2,5.54-8.68,10.14-11,15-8,16.84-25.06,39.08-35,54-4.66,7-6.62,13.79-11,21-2,3.31-6.83,6.59-9,10-2.87,4.51-.77,7.56-7,9-4-10.69-8.69-23.32-12-35-3-10.62-3.19-23.29-6-33-3.48-12.06,1-37.44,3-46,3.19-13.48,3-24.73,7-37,3.27-10.08,9.51-19.47,13-29,3-8.14,4-17.82,6-26C67.43,104,54,75.83,54,49Z" transform="translate(-14 -8)"/><path class="cls-1" d="M459,456c-27.19-2-64.28-14.25-93-7-14,3.52-25.72,11.43-38,16-16.59,6.17-34.52,6.85-53,11H258a192.45,192.45,0,0,1-60-9c-9-2.75-22.09-2.5-26-10,23.76-13.22,46.79-29.07,69-44,4.19-2.82,8.7-3.33,13-6,9-5.6,18.57-15.4,29-19,5.82-2,25.36,2.78,30,4h11c8.6,2.23,22.25,2.34,30,4,16.67,3.56,36,8.52,55,9v-2c-4.52-6.61-4-36.07-9-47-1.15-2.53,1.28-7.08,1-8l-2-1c-4.45-13.32-3-34.17-7-51-.91-3.81-4-12.33-2-18,3.37-9.38,11.81-15.44,16-23a515.68,515.68,0,0,1,30-47c4.79-6.69,6.44-14.26,11-21,4-5.88,9.05-11.26,13-20,1.75.63,1,.19,2,1,5.24,6.51,3.33,10.73,7,21,9.34,26.16,15.2,77.54,6,110-6.95,24.53-16.87,43.74-23,68C444.09,398.29,458.54,427.5,459,456Z" transform="translate(-14 -8)"/></svg>